<?xml version="1.0" standalone="no"?>
<!DOCTYPE svg PUBLIC "-//W3C//DTD SVG 20010904//EN"
 "http://www.w3.org/TR/2001/REC-SVG-20010904/DTD/svg10.dtd">
<svg version="1.0" xmlns="http://www.w3.org/2000/svg"
 width="1112.000000pt" height="1150.000000pt" viewBox="0 0 1112.000000 1150.000000"
 preserveAspectRatio="xMidYMid meet">

<g transform="translate(0.000000,1150.000000) scale(0.100000,-0.100000)"
fill="#000000" stroke="none">
<path d="M5803 11460 c-65 -15 -105 -50 -133 -115 -32 -75 -23 -141 30 -208
33 -42 72 -57 143 -57 73 0 109 19 161 83 27 34 31 46 30 100 0 34 -6 73 -13
87 -43 82 -137 130 -218 110z"/>
<path d="M8835 11317 c-36 -31 -38 -37 -37 -85 2 -92 55 -135 147 -118 66 13
103 98 68 158 -24 41 -77 78 -113 78 -16 0 -42 -13 -65 -33z"/>
<path d="M2545 11271 c-40 -18 -97 -74 -124 -121 -23 -40 -27 -160 -7 -202 67
-140 208 -193 341 -127 97 49 165 182 136 267 -33 96 -83 157 -153 187 -49 20
-143 18 -193 -4z"/>
<path d="M7537 11092 c-10 -10 -17 -29 -17 -41 0 -30 43 -71 75 -71 55 0 87
77 47 113 -25 23 -85 22 -105 -1z"/>
<path d="M9645 10707 c-87 -29 -152 -79 -205 -157 -47 -69 -60 -114 -60 -207
0 -124 51 -221 160 -302 78 -58 132 -74 238 -69 103 4 175 33 245 97 54 50
112 164 121 237 19 154 -68 304 -218 374 -58 27 -84 33 -155 36 -54 3 -101 -1
-126 -9z"/>
<path d="M5798 10645 c-2 -1 -82 -5 -178 -9 -221 -8 -377 -28 -575 -76 -281
-67 -387 -94 -440 -112 -72 -24 -192 -66 -220 -78 -11 -4 -74 -30 -140 -56
-146 -59 -456 -214 -554 -278 -39 -25 -73 -46 -76 -46 -9 0 -320 -220 -385
-273 -8 -7 -37 -30 -65 -52 -27 -22 -52 -42 -55 -45 -3 -3 -36 -32 -75 -65
-109 -93 -238 -220 -348 -340 -131 -143 -158 -175 -182 -206 -11 -15 -48 -63
-83 -108 -60 -78 -128 -179 -170 -251 -11 -19 -49 -83 -84 -141 -56 -91 -208
-386 -208 -403 0 -4 -9 -28 -21 -54 -12 -26 -25 -56 -30 -67 -54 -125 -92
-313 -76 -378 10 -37 62 -85 107 -97 28 -7 180 -10 468 -8 475 3 455 1 525 74
70 75 70 192 0 274 -57 66 -75 70 -311 70 -116 0 -213 4 -216 9 -3 4 3 26 13
47 10 22 27 59 37 84 43 104 180 359 254 474 59 92 228 304 285 356 l27 25
2853 3 c2389 2 2855 0 2866 -11 15 -14 26 -29 135 -167 69 -89 249 -355 302
-450 89 -155 169 -341 157 -361 -4 -5 -97 -9 -213 -9 -119 0 -224 -5 -246 -11
-51 -14 -102 -67 -117 -121 -17 -64 -6 -159 22 -200 35 -50 42 -55 93 -72 40
-14 108 -16 465 -16 394 0 421 1 463 20 70 31 108 88 108 162 0 40 -29 167
-49 213 -5 11 -26 63 -46 115 -110 282 -358 717 -534 940 -177 223 -476 530
-686 705 -33 28 -65 55 -71 60 -6 6 -27 21 -47 35 -20 14 -37 28 -37 33 0 4
-6 7 -14 7 -7 0 -19 7 -26 15 -20 24 -377 257 -470 307 -202 109 -236 125
-485 233 -313 136 -874 265 -1265 290 -103 7 -377 14 -382 10z m522 -469 c116
-16 154 -22 220 -37 97 -22 128 -29 200 -45 168 -37 250 -63 490 -159 196 -78
365 -161 545 -267 101 -59 235 -147 261 -172 6 -6 41 -35 78 -65 61 -51 80
-81 57 -95 -12 -8 -4565 -8 -4585 0 -27 10 -18 42 25 83 39 38 290 210 407
279 63 38 391 201 442 220 19 7 43 18 52 23 10 5 26 9 36 9 10 0 22 4 27 9 9
8 123 45 220 72 22 6 49 15 60 19 29 12 207 57 300 76 150 31 264 48 435 64
136 12 604 4 730 -14z"/>
<path d="M1652 10410 c-35 -33 -26 -104 17 -137 9 -7 33 -13 53 -13 69 0 103
90 53 144 -31 33 -90 36 -123 6z"/>
<path d="M3378 8601 c-41 -32 -49 -83 -43 -263 2 -90 7 -338 10 -553 6 -406 9
-507 25 -840 19 -385 55 -798 89 -1020 28 -184 41 -258 63 -363 l12 -54 1130
6 c622 4 1673 3 2334 -1 662 -5 1206 -4 1209 0 2 4 9 36 14 70 5 34 14 87 19
117 26 146 61 414 79 600 7 63 14 135 17 160 38 321 64 937 67 1590 2 556 5
534 -71 559 -39 13 -61 10 -137 -20 -11 -4 -54 -19 -95 -34 -41 -15 -84 -31
-95 -35 -28 -13 -189 -65 -260 -85 -33 -9 -68 -21 -77 -26 -10 -5 -27 -9 -37
-9 -11 0 -22 -4 -25 -9 -3 -4 -20 -11 -38 -14 -18 -4 -76 -18 -128 -33 -96
-26 -120 -32 -220 -54 -30 -7 -73 -16 -95 -21 -53 -12 -294 -57 -370 -70 -351
-58 -573 -73 -990 -66 -306 5 -373 9 -605 38 -152 18 -456 73 -660 119 -19 5
-55 13 -80 18 -25 6 -88 22 -140 36 -52 15 -120 34 -150 42 -56 15 -248 79
-285 94 -11 4 -36 13 -55 20 -19 7 -48 18 -65 25 -16 8 -59 23 -95 35 -36 12
-74 25 -85 29 -90 36 -132 39 -167 12z m1494 -1775 c101 -27 153 -49 218 -91
112 -74 195 -164 264 -287 33 -60 96 -202 96 -218 0 -16 -336 -60 -465 -60
-44 0 -123 7 -175 15 -268 43 -424 139 -657 404 -76 87 -80 101 -30 117 12 4
40 15 62 24 57 26 181 66 245 81 30 6 69 15 85 20 54 13 300 10 357 -5z m2408
-4 c109 -21 312 -83 334 -103 6 -5 18 -9 27 -9 9 0 22 -7 29 -15 11 -13 3 -27
-50 -88 -242 -278 -433 -391 -719 -426 -64 -8 -129 -7 -270 4 -308 25 -331 29
-331 59 0 12 4 26 8 32 5 5 17 29 26 54 32 83 110 205 179 277 107 112 233
185 381 218 69 15 294 13 386 -3z"/>
<path d="M1026 8510 c-54 -27 -71 -45 -95 -96 -22 -46 -29 -138 -11 -149 6 -3
10 -14 10 -24 0 -45 110 -121 174 -121 39 0 111 28 142 56 50 45 72 140 51
217 -10 36 -84 117 -108 117 -10 0 -21 5 -24 10 -10 17 -98 10 -139 -10z"/>
<path d="M10286 8380 c-84 -42 -125 -107 -126 -198 0 -98 58 -177 147 -200 44
-11 58 -11 106 3 68 20 100 44 131 98 34 59 40 108 22 170 -35 119 -171 181
-280 127z"/>
<path d="M9767 6789 c-33 -11 -75 -30 -95 -43 -50 -31 -128 -112 -158 -163
l-25 -41 -82 -6 c-45 -3 -192 -5 -327 -4 -231 1 -247 0 -286 -20 -45 -23 -53
-31 -83 -85 -49 -88 -12 -229 72 -275 28 -15 74 -18 368 -22 l336 -5 69 -71
c49 -50 89 -80 139 -104 66 -32 76 -34 180 -34 112 -1 133 4 225 48 129 62
230 235 230 394 -1 296 -296 521 -563 431z"/>
<path d="M1715 6793 c-16 -3 -63 -20 -103 -38 -114 -53 -191 -141 -231 -264
-14 -44 -14 -218 0 -262 65 -207 255 -345 448 -326 150 14 252 76 359 217 2 3
167 7 367 10 l363 5 39 31 c50 39 83 105 83 164 0 65 -46 141 -107 177 l-48
28 -337 3 -338 3 -46 60 c-25 33 -57 71 -70 84 -29 29 -105 75 -154 93 -38 14
-176 23 -225 15z"/>
<path d="M9309 5397 c-121 -47 -174 -92 -244 -206 -22 -36 -47 -63 -59 -66
-12 -2 -109 -6 -218 -7 l-196 -3 -43 -30 c-65 -46 -84 -85 -84 -176 0 -67 3
-80 28 -112 52 -68 64 -71 332 -77 l240 -6 65 -64 c46 -46 88 -77 144 -104 75
-37 85 -39 175 -40 58 0 110 5 131 13 141 53 237 135 290 245 39 82 50 151 40
241 -22 197 -124 324 -323 404 -49 19 -214 12 -278 -12z"/>
<path d="M3639 5120 c-3 -14 4 -51 20 -100 10 -30 36 -109 56 -175 21 -66 39
-121 40 -123 5 -6 4230 -1 4235 5 6 8 19 47 38 118 29 105 64 222 73 243 5 13
9 28 9 34 0 10 -4469 9 -4471 -2z"/>
<path d="M2457 5106 c-79 -29 -120 -95 -120 -196 -1 -75 22 -120 82 -161 l36
-24 362 0 361 0 39 31 c77 62 104 161 68 246 -15 38 -73 94 -112 109 -41 15
-671 11 -716 -5z"/>
<path d="M1323 5090 c-55 -33 -83 -90 -84 -169 -1 -58 3 -75 25 -108 82 -123
271 -105 335 32 27 57 27 105 0 157 -41 81 -85 108 -176 108 -50 0 -77 -5
-100 -20z"/>
<path d="M10372 4900 c-31 -29 -38 -65 -18 -96 16 -23 52 -44 77 -44 22 0 59
50 59 80 0 37 -39 80 -73 80 -13 0 -33 -9 -45 -20z"/>
<path d="M3914 4326 c-9 -24 102 -258 149 -311 35 -40 276 -215 296 -215 6 0
11 -4 11 -10 0 -5 4 -10 9 -10 5 0 42 -19 83 -43 72 -43 339 -177 351 -177 4
0 35 -13 69 -29 35 -15 88 -40 118 -53 68 -31 245 -98 260 -98 6 0 18 -4 28
-9 9 -5 42 -17 72 -26 30 -9 91 -28 135 -42 228 -71 357 -97 419 -84 23 5 68
15 101 22 225 46 519 143 740 244 31 14 57 25 60 25 13 0 339 159 430 210 209
117 345 208 392 260 43 47 116 165 150 240 19 41 38 82 43 91 5 9 6 20 3 23
-4 3 -885 6 -1960 6 -1636 0 -1954 -2 -1959 -14z"/>
<path d="M1372 4035 c-41 -18 -52 -57 -25 -93 26 -36 68 -40 99 -11 58 55 1
135 -74 104z"/>
<path d="M2875 3814 c-135 -34 -204 -182 -146 -311 21 -44 107 -135 235 -248
44 -39 100 -88 125 -111 26 -22 69 -58 96 -80 28 -21 52 -42 55 -45 9 -11 283
-199 334 -229 65 -39 82 -49 131 -81 131 -85 479 -254 660 -321 76 -28 276
-97 340 -118 61 -19 291 -78 332 -85 37 -6 50 -17 129 -108 49 -56 101 -115
115 -132 15 -16 91 -104 169 -195 313 -362 409 -470 425 -477 7 -2 33 17 58
44 46 49 243 285 287 342 60 80 168 212 225 276 223 253 225 255 255 255 23 0
116 22 295 70 39 10 287 93 345 115 226 85 536 233 725 346 186 110 326 211
516 369 36 30 83 69 105 87 83 67 284 270 313 317 61 98 35 214 -65 286 -46
33 -53 35 -129 35 -94 0 -106 -6 -230 -126 -196 -189 -515 -440 -720 -566
-138 -85 -381 -214 -495 -262 -30 -13 -74 -32 -97 -42 -24 -10 -49 -19 -57
-19 -8 0 -17 -4 -20 -9 -3 -5 -16 -11 -28 -14 -13 -3 -61 -17 -108 -32 -47
-15 -100 -31 -117 -36 -18 -5 -48 -13 -65 -18 -238 -67 -321 -84 -548 -111
-300 -36 -699 -29 -1020 18 -85 13 -334 66 -420 90 -19 6 -69 19 -110 31 -89
24 -238 75 -297 102 -24 10 -45 19 -47 19 -10 0 -186 83 -321 152 -305 154
-647 402 -950 690 -113 107 -150 131 -208 134 -29 2 -61 0 -72 -2z"/>
<path d="M9898 3476 c-11 -8 -18 -27 -18 -48 0 -84 109 -93 126 -10 11 56 -61
94 -108 58z"/>
<path d="M1729 3245 c-179 -66 -287 -216 -289 -401 -1 -212 198 -414 409 -414
185 0 355 128 407 305 26 93 15 216 -28 297 -55 104 -148 179 -267 217 -46 15
-188 13 -232 -4z"/>
<path d="M9600 2908 c-205 -76 -317 -302 -249 -508 64 -195 224 -301 431 -287
100 7 170 39 249 116 228 221 142 579 -163 686 -63 22 -199 18 -268 -7z"/>
<path d="M7650 1813 c-76 -50 -101 -95 -101 -180 0 -102 59 -181 151 -200 88
-18 172 18 221 96 60 94 20 233 -83 287 -38 20 -156 18 -188 -3z"/>
<path d="M3798 1703 c-41 -6 -88 -68 -88 -115 0 -44 34 -102 68 -118 13 -5 43
-10 67 -10 75 0 133 75 118 152 -6 32 -65 88 -93 88 -10 0 -24 2 -32 3 -7 2
-25 2 -40 0z"/>
<path d="M5805 915 c-105 -28 -172 -85 -217 -182 -39 -87 -39 -163 1 -247 87
-180 288 -234 455 -122 51 34 67 52 96 110 31 61 35 77 34 145 0 62 -5 85 -26
126 -70 134 -214 205 -343 170z"/>
</g>
</svg>
